<svg xmlns="http://www.w3.org/2000/svg" width="3840" height="2160" viewBox="0 0 3840 2160"><rect width="100%" height="100%" fill="#DDDDDD"/><path fill="#999999" d="m813.845 1020.005-26.26-4.65q3.03-21 11.72-36.86t21.71-26.46q13.03-10.61 29.9-15.96t36.26-5.35q20.2 0 36.46 5.75 16.26 5.76 27.78 15.96 11.51 10.2 17.67 23.94 6.16 13.73 6.16 29.69 0 13.94-3.13 24.54-3.13 10.61-8.99 18.49t-14.54 13.33q-8.69 5.45-19.6 9.09 26.26 8.28 39.19 25.25t12.93 42.62q0 21.82-8.08 38.58-8.08 16.77-21.82 28.18-13.73 11.42-31.81 17.27-18.08 5.86-38.28 5.86-22.02 0-38.38-5.05t-28.48-14.95q-12.12-9.89-20.61-24.24-8.48-14.34-14.54-33.12l22.02-9.09q8.68-3.64 16.26-1.92 7.57 1.71 11.01 8.18 3.63 7.07 7.98 13.94 4.34 6.86 10.4 12.22 6.06 5.35 14.24 8.68 8.18 3.34 19.49 3.34 12.73 0 22.22-4.15 9.5-4.14 15.86-10.8 6.36-6.67 9.49-14.85 3.14-8.18 3.14-16.46 0-10.51-2.23-19.09-2.22-8.59-9.29-14.65t-20.3-9.49-35.45-3.43v-35.56q18.38-.2 30.5-3.43t19.29-8.99 10-13.84 2.83-17.77q0-20.61-11.51-31.31-11.52-10.71-30.71-10.71-8.89 0-16.36 2.53-7.47 2.52-13.43 7.07-5.96 4.54-10 10.6t-6.06 13.33q-3.44 9.3-8.99 12.33-5.56 3.03-15.66 1.41m303.41 170.29q12.32 0 21.61-3.54 9.29-3.53 15.66-9.8 6.36-6.26 9.59-14.94 3.23-8.69 3.23-18.79 0-24.04-13.33-36.36t-36.76-12.32-36.77 12.32q-13.33 12.32-13.33 36.36 0 10.1 3.23 18.79 3.24 8.68 9.6 14.94 6.36 6.27 15.65 9.8 9.3 3.54 21.62 3.54m0-222q-11.11 0-19.19 3.43-8.08 3.44-13.43 9.19-5.36 5.76-7.88 13.23-2.53 7.48-2.53 15.76 0 8.69 2.12 16.87t7.17 14.54 13.34 10.2q8.28 3.84 20.4 3.84t20.4-3.84 13.33-10.2 7.17-14.54 2.12-16.87q0-8.28-2.62-15.76-2.63-7.47-7.88-13.23-5.25-5.75-13.33-9.19-8.08-3.43-19.19-3.43m49.29 105.44q26.66 8.69 39.39 26.56 12.72 17.88 12.72 43.74 0 19.39-7.37 35.15-7.37 15.75-20.71 26.86-13.33 11.11-32.01 17.17-18.69 6.06-41.31 6.06-22.63 0-41.31-6.06-18.69-6.06-32.02-17.17t-20.7-26.86q-7.38-15.76-7.38-35.15 0-25.86 12.73-43.74 12.73-17.87 39.39-26.56-21.21-8.89-31.82-25.25-10.6-16.36-10.6-39.39 0-16.56 6.77-30.9 6.76-14.35 18.88-24.95 12.12-10.61 28.99-16.57 16.87-5.95 37.07-5.95t37.06 5.95q16.87 5.96 28.99 16.57 12.12 10.6 18.89 24.95 6.77 14.34 6.77 30.9 0 23.03-10.61 39.39-10.6 16.36-31.81 25.25m122.81 42.22h88.88v-95.55q0-13.53 1.82-29.89zm132.31 0h36.77v28.89q0 4.04-2.63 6.97-2.63 2.92-7.47 2.92h-26.67v71.31h-43.43v-71.31h-123.22q-5.05 0-8.89-3.13-3.83-3.13-4.84-7.77l-5.26-25.25 138.37-184.83h47.27zm271.29-35.96q0 38.18-8.18 66.36t-22.63 46.56q-14.44 18.38-34.13 27.37-19.7 8.99-42.53 8.99-22.82 0-42.31-8.99-19.5-8.99-33.84-27.37t-22.42-46.56-8.08-66.36q0-38.38 8.08-66.45 8.08-28.08 22.42-46.46 14.34-18.39 33.84-27.38 19.49-8.98 42.31-8.98 22.83 0 42.53 8.98 19.69 8.99 34.13 27.38 14.45 18.38 22.63 46.46 8.18 28.07 8.18 66.45m-51.51 0q0-31.71-4.65-52.52-4.64-20.8-12.42-33.12-7.78-12.33-17.88-17.28-10.1-4.94-21.01-4.94-10.7 0-20.7 4.94-10 4.95-17.68 17.28-7.67 12.32-12.22 33.12-4.54 20.81-4.54 52.52 0 31.72 4.54 52.52 4.55 20.81 12.22 33.13 7.68 12.32 17.68 17.27t20.7 4.95q10.91 0 21.01-4.95t17.88-17.27 12.42-33.13q4.65-20.8 4.65-52.52m372.28 79.19-26.46 26.06-68.48-68.48-69.08 68.88-26.46-26.06 69.08-69.28-65.85-65.86 26.26-26.26 65.85 65.86 65.45-65.45 26.66 26.26-65.65 65.65zm243.21 20.4h74.94q8.08 0 12.83 4.55 4.75 4.54 4.75 12.01v29.9h-200.39v-16.56q0-5.05 2.13-10.61 2.12-5.55 6.76-10l88.68-88.88q11.11-11.31 19.9-21.61 8.78-10.3 14.64-20.4t8.99-20.51q3.13-10.4 3.13-21.91 0-10.51-3.03-18.49t-8.58-13.43q-5.56-5.45-13.33-8.18-7.78-2.73-17.48-2.73-8.89 0-16.46 2.53-7.58 2.52-13.43 7.07-5.86 4.54-9.9 10.6t-6.06 13.33q-3.44 9.3-8.89 12.33t-15.76 1.41l-26.26-4.65q3.03-21 11.72-36.86t21.72-26.46q13.02-10.61 29.89-15.96t36.26-5.35q20.2 0 36.97 5.95 16.76 5.96 28.68 16.87t18.58 26.26q6.67 15.35 6.67 34.14 0 16.16-4.75 29.9-4.74 13.73-12.72 26.26-7.98 12.52-18.69 24.24-10.7 11.71-22.42 23.83l-65.85 67.27q9.49-2.83 18.89-4.35 9.39-1.51 17.87-1.51m267.65 9.09h52.52v37.37h-161.6v-37.37h59.19v-170.29q0-10.1.6-20.8l-42.01 35.15q-3.64 2.82-7.17 3.53-3.54.71-6.67.1-3.13-.6-5.55-2.12-2.43-1.51-3.64-3.33l-15.76-21.62 89.09-75.75h41zm269.87-254.72-86.65 106.05-10.1 12.52q8.48-4.24 18.28-6.56 9.79-2.33 21.11-2.33 16.56 0 32.22 5.46 15.65 5.45 27.57 16.46t19.19 27.37 7.27 38.18q0 20.4-7.47 38.28-7.48 17.88-21.01 31.21-13.54 13.33-32.62 21.01-19.09 7.67-42.12 7.67-23.43 0-42.02-7.47-18.58-7.48-31.71-20.91t-20.1-32.32-6.97-41.91q0-20.61 8.38-42.32 8.39-21.72 25.96-45.15l69.69-93.53q3.64-4.84 10.61-8.28 6.96-3.43 16.05-3.43zm-75.34 254.52q11.92 0 21.92-4.04 9.99-4.04 17.17-11.31 7.17-7.28 11.21-17.07 4.04-9.8 4.04-21.31 0-12.53-3.84-22.53t-10.91-16.97q-7.07-6.96-16.97-10.6t-21.81-3.64q-11.92 0-21.62 4.04-9.69 4.04-16.56 11.22-6.87 7.17-10.71 16.96-3.84 9.8-3.84 21.11 0 12.12 3.34 22.12 3.33 10 9.9 17.07 6.56 7.07 16.26 11.01 9.69 3.94 22.42 3.94m341.78-108.48q0 38.18-8.18 66.36t-22.62 46.56q-14.45 18.38-34.14 27.37-19.7 8.99-42.52 8.99-22.83 0-42.32-8.99t-33.84-27.37q-14.34-18.38-22.42-46.56t-8.08-66.36q0-38.38 8.08-66.45 8.08-28.08 22.42-46.46 14.35-18.39 33.84-27.38 19.49-8.98 42.32-8.98 22.82 0 42.52 8.98 19.69 8.99 34.14 27.38 14.44 18.38 22.62 46.46 8.18 28.07 8.18 66.45m-51.51 0q0-31.71-4.64-52.52-4.65-20.8-12.43-33.12-7.77-12.33-17.87-17.28-10.1-4.94-21.01-4.94-10.71 0-20.71 4.94-10 4.95-17.67 17.28-7.68 12.32-12.22 33.12-4.55 20.81-4.55 52.52 0 31.72 4.55 52.52 4.54 20.81 12.22 33.13 7.67 12.32 17.67 17.27t20.71 4.95q10.91 0 21.01-4.95t17.87-17.27q7.78-12.32 12.43-33.13 4.64-20.8 4.64-52.52"/></svg>